<?xml version="1.0" encoding="UTF-8" standalone="no"?>
<!-- Generator: Adobe Illustrator 25.3.0, SVG Export Plug-In . SVG Version: 6.00 Build 0)  -->

<svg
   version="1.0"
   x="0px"
   y="0px"
   viewBox="0 0 117.26285 39.657738"
   xml:space="preserve"
   id="svg111"
   sodipodi:docname="HSE_Logo.svg"
   width="117.26285"
   height="39.657738"
   inkscape:version="1.2.1 (9c6d41e410, 2022-07-14)"
   xmlns:inkscape="http://www.inkscape.org/namespaces/inkscape"
   xmlns:sodipodi="http://sodipodi.sourceforge.net/DTD/sodipodi-0.dtd"
   xmlns="http://www.w3.org/2000/svg"
   xmlns:svg="http://www.w3.org/2000/svg"><defs
   id="defs115" /><sodipodi:namedview
   id="namedview113"
   pagecolor="#ffffff"
   bordercolor="#000000"
   borderopacity="0.25"
   inkscape:showpageshadow="2"
   inkscape:pageopacity="0.0"
   inkscape:pagecheckerboard="0"
   inkscape:deskcolor="#d1d1d1"
   showgrid="false"
   inkscape:zoom="8.7215659"
   inkscape:cx="87.656278"
   inkscape:cy="34.053518"
   inkscape:window-width="2560"
   inkscape:window-height="1494"
   inkscape:window-x="-11"
   inkscape:window-y="-11"
   inkscape:window-maximized="1"
   inkscape:current-layer="DE" />
<style
   type="text/css"
   id="style2">
	.st0{fill:#D70F3C;}
	.st1{fill:#002D58;}
	.st2{display:none;}
	.st3{display:inline;opacity:0;fill:#C2C7D9;}
</style>
<g
   id="Klammer"
   transform="translate(-4.26758,-4.2517796)">
	<g
   id="g8">
		<g
   id="g6">
			<polygon
   class="st0"
   points="4.26758,4.2517796 17.329103,4.2517796 17.329103,7.2517796 7.26758,7.2517796 7.26758,17.313303 4.26758,17.313303 "
   id="polygon4" />
		</g>
	</g>
</g>
<g
   id="DE"
   transform="translate(-4.26758,-4.2517796)">
	<g
   id="g29">
		<path
   class="st1"
   d="m 21.062653,28.380222 v 2.643555 h -6.442382 v 3.443359 h 5.776366 v 2.622071 h -5.776366 v 3.998047 h 6.442382 v 2.62207 H 11.509919 V 28.380222 Z"
   id="path11" />
		<path
   class="st1"
   d="m 31.640778,32.356785 c -0.666016,-1.044922 -1.465821,-1.555664 -3.021485,-1.555664 -1.399414,0 -2.154297,0.644531 -2.154297,1.688476 0,1.200196 0.976563,1.733399 3.021485,2.244141 3.199218,0.799805 4.642578,2 4.642578,4.709961 0,2.510742 -1.688477,4.46582 -5.28711,4.46582 -2.688476,0 -4.554687,-0.733398 -5.910156,-2.510742 l 2.376953,-1.643555 c 0.822266,1.021485 1.75586,1.532227 3.333008,1.532227 1.777344,0 2.376953,-0.777344 2.376953,-1.709961 0,-1.066406 -0.643554,-1.666992 -3.131836,-2.310547 -3.021484,-0.800781 -4.533203,-2.244141 -4.533203,-4.777344 0,-2.421875 1.59961,-4.30957 5.244141,-4.30957 2.443359,0 4.287109,0.821289 5.375976,2.510742 z"
   id="path13" />
		<path
   class="st1"
   d="m 44.863434,32.356785 c -0.666016,-1.044922 -1.46582,-1.555664 -3.021485,-1.555664 -1.399414,0 -2.154296,0.644531 -2.154296,1.688476 0,1.200196 0.976562,1.733399 3.021484,2.244141 3.199219,0.799805 4.642578,2 4.642578,4.709961 0,2.510742 -1.688477,4.46582 -5.287109,4.46582 -2.688477,0 -4.554688,-0.733398 -5.910157,-2.510742 l 2.376954,-1.643555 c 0.822265,1.021485 1.755859,1.532227 3.333007,1.532227 1.777344,0 2.376953,-0.777344 2.376953,-1.709961 0,-1.066406 -0.643554,-1.666992 -3.131835,-2.310547 -3.021485,-0.800781 -4.533204,-2.244141 -4.533204,-4.777344 0,-2.421875 1.59961,-4.30957 5.244141,-4.30957 2.443359,0 4.287109,0.821289 5.375977,2.510742 z"
   id="path15" />
		<path
   class="st1"
   d="m 53.220856,41.087254 h 6.443359 v 2.62207 H 50.110504 V 28.380222 h 3.110352 z"
   id="path17" />
		<path
   class="st1"
   d="M 65.088043,43.709324 H 61.976715 V 28.380222 h 3.111328 z"
   id="path19" />
		<path
   class="st1"
   d="m 80.30777,28.380222 v 15.329102 h -2.598633 l -5.976563,-9.486328 v 9.486328 H 68.777496 V 28.380222 h 2.577149 l 5.999023,9.619141 v -9.619141 z"
   id="path21" />
		<path
   class="st1"
   d="m 94.841949,35.733738 v 1.399414 c 0,4.6875 -2.177734,6.776367 -5.643554,6.776367 -3.44336,0 -5.865235,-2.088867 -5.865235,-6.776367 v -1.955078 c 0,-4.954102 2.421875,-6.998047 5.865235,-6.998047 3.221679,0 5.154297,1.821289 5.621094,4.954102 h -2.97754 c -0.265625,-1.399414 -1.08789,-2.333008 -2.643554,-2.333008 -1.799805,0 -2.754883,1.22168 -2.754883,4.155273 v 2.176758 c 0,2.932617 0.955078,4.154297 2.754883,4.154297 1.754883,0 2.46582,-1.088867 2.643554,-2.932617 h -2.576171 v -2.621094 z"
   id="path23" />
		<path
   class="st1"
   d="m 107.39859,28.380222 v 2.643555 h -6.44336 v 3.443359 h 5.77637 v 2.622071 h -5.77637 v 3.998047 h 6.44336 v 2.62207 H 97.844879 V 28.380222 Z"
   id="path25" />
		<path
   class="st1"
   d="m 121.53043,28.380222 v 15.329102 h -2.59864 l -5.97656,-9.486328 v 9.486328 h -2.95508 V 28.380222 h 2.57715 l 5.99902,9.619141 v -9.619141 z"
   id="path27" />
	</g>
	<g
   id="g51">
		<polygon
   class="st1"
   points="12.580476,11.528374 11.518952,11.528374 11.518952,24.152397 12.580476,24.152397 12.580476,18.096733 18.837311,18.096733 18.837311,24.152397 19.897858,24.152397 19.897858,11.528374 18.837311,11.528374 18.837311,17.108452 12.580476,17.108452 "
   id="polygon31" />
		<path
   class="st1"
   d="m 27.185871,11.418999 c -2.707031,0 -4.482422,1.701172 -4.482422,5.671875 v 1.5 c 0,3.988281 1.775391,5.670898 4.482422,5.670898 2.708008,0 4.482422,-1.682617 4.482422,-5.670898 v -1.5 c 0,-3.970703 -1.774414,-5.671875 -4.482422,-5.671875 z m 3.421875,7.171875 c 0,3.420898 -1.354492,4.683593 -3.421875,4.683593 -2.067383,0 -3.420898,-1.262695 -3.420898,-4.683593 v -1.5 c 0,-3.403321 1.353515,-4.683594 3.420898,-4.683594 2.067383,0 3.421875,1.280273 3.421875,4.683594 z"
   id="path33" />
		<path
   class="st1"
   d="m 38.956306,12.40728 c 1.719727,0 2.982422,0.804688 3.403321,2.945313 h 1.042969 c -0.402344,-2.762696 -2.195313,-3.933594 -4.44629,-3.933594 -2.74414,0 -4.482421,1.591797 -4.482421,5.671875 v 1.5 c 0,4.080078 1.738281,5.670898 4.482421,5.670898 2.15918,0 4.025391,-1.133789 4.427735,-3.969727 h -1.024414 c -0.402344,2.012696 -1.573242,2.982422 -3.403321,2.982422 -2.140625,0 -3.420898,-1.225586 -3.420898,-4.683593 v -1.5 c 0,-3.44043 1.262695,-4.683594 3.420898,-4.683594 z"
   id="path35" />
		<polygon
   class="st1"
   points="47.269711,11.528374 46.208187,11.528374 46.208187,24.152397 47.269711,24.152397 47.269711,18.096733 53.526547,18.096733 53.526547,24.152397 54.587093,24.152397 54.587093,11.528374 53.526547,11.528374 53.526547,17.108452 47.269711,17.108452 "
   id="polygon37" />
		<path
   class="st1"
   d="m 62.021412,17.346733 c -1.830078,-0.402344 -3.275391,-0.860352 -3.275391,-2.670898 0,-1.555664 1.153321,-2.268555 2.890625,-2.268555 1.738281,0 2.616207,0.712891 3.275387,1.682617 l 0.841797,-0.603515 c -0.878906,-1.390625 -2.123043,-2.067383 -4.080074,-2.067383 -2.835938,0 -3.988281,1.481445 -3.988281,3.256836 0,2.25 1.609375,3.165039 3.969726,3.62207 2.378902,0.457031 3.256832,1.189453 3.256832,2.708008 0,1.225586 -0.841797,2.268554 -3.091793,2.268554 -1.884765,0 -2.762695,-0.695312 -3.549805,-1.683593 l -0.859375,0.603515 c 0.932618,1.372071 2.396485,2.067383 4.40918,2.067383 3.018551,0 4.15234,-1.682617 4.15234,-3.292969 0,-2.377929 -1.573242,-3.110351 -3.951168,-3.62207 z"
   id="path39" />
		<path
   class="st1"
   d="m 72.763596,12.40728 c 1.719726,0 2.982422,0.804688 3.40332,2.945313 h 1.042969 c -0.402344,-2.762696 -2.195313,-3.933594 -4.446289,-3.933594 -2.744141,0 -4.482422,1.591797 -4.482422,5.671875 v 1.5 c 0,4.080078 1.738281,5.670898 4.482422,5.670898 2.159179,0 4.02539,-1.133789 4.427734,-3.969727 h -1.024414 c -0.402344,2.012696 -1.573242,2.982422 -3.40332,2.982422 -2.140625,0 -3.420899,-1.225586 -3.420899,-4.683593 v -1.5 c 0,-3.44043 1.262695,-4.683594 3.420899,-4.683594 z"
   id="path41" />
		<polygon
   class="st1"
   points="80.963791,11.528374 79.902267,11.528374 79.902267,24.152397 80.963791,24.152397 80.963791,18.096733 87.220627,18.096733 87.220627,24.152397 88.281174,24.152397 88.281174,11.528374 87.220627,11.528374 87.220627,17.108452 80.963791,17.108452 "
   id="polygon43" />
		<path
   class="st1"
   d="m 99.84758,18.993217 c 0,2.926758 -1.207031,4.28125 -3.420898,4.28125 -2.213868,0 -3.420899,-1.354492 -3.420899,-4.28125 V 11.528374 H 91.94426 v 7.464843 c 0,3.713868 1.738281,5.268555 4.482422,5.268555 2.74414,0 4.482418,-1.554687 4.482418,-5.268555 v -7.464843 h -1.06152 z"
   id="path45" />
		<polygon
   class="st1"
   points="104.3588,24.152397 111.78653,24.152397 111.78653,23.164116 105.42032,23.164116 105.42032,11.528374 104.3588,11.528374 "
   id="polygon47" />
		<polygon
   class="st1"
   points="114.08585,11.528374 114.08585,24.152397 121.51359,24.152397 121.51359,23.164116 115.14738,23.164116 115.14738,18.115288 120.96476,18.115288 120.96476,17.127007 115.14738,17.127007 115.14738,12.516655 121.51359,12.516655 121.51359,11.528374 "
   id="polygon49" />
	</g>
	
</g>
<g
   id="Vermassung"
   class="st2"
   transform="translate(-4.26758,-4.2517796)">
	<path
   class="st3"
   d="m 11.434015,43.714287 v 2.643555 H 4.991632 v 3.443359 H 10.768 v 2.62207 H 4.991632 v 3.998047 h 6.442383 v 2.62207 H 1.8812804 V 43.714287 Z"
   id="path100" />
	<rect
   x="-0.0001587"
   y="7.2340713"
   class="st3"
   width="4.2601218"
   height="4.2601218"
   id="rect102" />
	<rect
   x="5.98558"
   y="0.0047674999"
   class="st3"
   width="4.2601218"
   height="4.2601218"
   id="rect104" />
	<rect
   x="7.2741766"
   y="7.2756386"
   class="st3"
   width="4.2601218"
   height="4.2601218"
   id="rect106" />
	<rect
   x="7.2276063"
   y="24.158653"
   class="st3"
   width="4.2601218"
   height="4.2601218"
   id="rect108" />
</g>
</svg>
